<svg xmlns="http://www.w3.org/2000/svg" viewBox="0 0 96 96" role="img" aria-label="字筑塔">
  <defs>
    <linearGradient id="brickTan" x1="22" y1="14" x2="76" y2="86">
      <stop offset="0" stop-color="#f5c782"/>
      <stop offset="1" stop-color="#b86d40"/>
    </linearGradient>
    <linearGradient id="brickLight" x1="20" y1="17" x2="70" y2="77">
      <stop offset="0" stop-color="#ffe1a3"/>
      <stop offset="1" stop-color="#d78b52"/>
    </linearGradient>
    <linearGradient id="brickGreen" x1="28" y1="23" x2="72" y2="76">
      <stop offset="0" stop-color="#a7c98b"/>
      <stop offset="1" stop-color="#5f8c62"/>
    </linearGradient>
    <linearGradient id="brickSide" x1="50" y1="16" x2="75" y2="84">
      <stop offset="0" stop-color="#d58d5b"/>
      <stop offset="1" stop-color="#8d5638"/>
    </linearGradient>
    <filter id="softDrop" x="-18%" y="-18%" width="136%" height="142%">
      <feDropShadow dx="0" dy="3" stdDeviation="2.2" flood-color="#6a4b2c" flood-opacity="0.24"/>
    </filter>
  </defs>
  <g filter="url(#softDrop)" transform="translate(-1.5 -2.5)">
    <ellipse cx="48" cy="84" rx="29" ry="5.8" fill="#6f4a2e" opacity="0.22"/>

    <path d="M20 66.8c0-3 2.4-5.4 5.4-5.4h49.2c3 0 5.4 2.4 5.4 5.4v11.8c0 3-2.4 5.4-5.4 5.4H25.4c-3 0-5.4-2.4-5.4-5.4V66.8Z" fill="url(#brickTan)" stroke="#7b573a" stroke-width="2"/>
    <path d="M24.6 62.7h50.8l-4.9 5.1H19.8l4.8-5.1Z" fill="#ffd998" opacity="0.72"/>
    <path d="M73 67.8h7v10.6c0 3-2.4 5.4-5.4 5.4H73v-16Z" fill="url(#brickSide)" opacity="0.72"/>

    <path d="M28 49.8c0-3 2.4-5.4 5.4-5.4h38.2c3 0 5.4 2.4 5.4 5.4v11.8c0 3-2.4 5.4-5.4 5.4H33.4c-3 0-5.4-2.4-5.4-5.4V49.8Z" fill="url(#brickGreen)" stroke="#5c6f47" stroke-width="2"/>
    <path d="M32.8 45.6h39.6L68 50.4H27.9l4.9-4.8Z" fill="#d6e7aa" opacity="0.66"/>
    <path d="M68 50.5h9v11.1c0 3-2.4 5.4-5.4 5.4H68V50.5Z" fill="#577e5a" opacity="0.62"/>

    <path d="M19 33.4c0-3 2.4-5.4 5.4-5.4h43.2c3 0 5.4 2.4 5.4 5.4v12.1c0 3-2.4 5.4-5.4 5.4H24.4c-3 0-5.4-2.4-5.4-5.4V33.4Z" fill="url(#brickLight)" stroke="#7b573a" stroke-width="2"/>
    <path d="M23.9 29h43.9L63.1 34H18.8l5.1-5Z" fill="#ffe9b4" opacity="0.68"/>
    <path d="M63.1 34H73v11.5c0 3-2.4 5.4-5.4 5.4h-4.5V34Z" fill="url(#brickSide)" opacity="0.56"/>

    <path d="M33 16.9c0-3 2.4-5.4 5.4-5.4h35.2c3 0 5.4 2.4 5.4 5.4V29c0 3-2.4 5.4-5.4 5.4H38.4c-3 0-5.4-2.4-5.4-5.4V16.9Z" fill="url(#brickTan)" stroke="#7b573a" stroke-width="2"/>
    <path d="M38 12.6h35.6L69.2 17H32.9l5.1-4.4Z" fill="#ffe0a3" opacity="0.7"/>
    <path d="M69.2 17H79v12c0 3-2.4 5.4-5.4 5.4h-4.4V17Z" fill="url(#brickSide)" opacity="0.6"/>

    <path d="M35 39.7h5.8" stroke="#8a5d3b" stroke-width="2.3" stroke-linecap="round" opacity="0.5"/>
    <path d="M52 56.2h6" stroke="#426c48" stroke-width="2.3" stroke-linecap="round" opacity="0.55"/>
    <path d="M38 73.2h6" stroke="#8a5d3b" stroke-width="2.3" stroke-linecap="round" opacity="0.48"/>
    <circle cx="61.8" cy="24.5" r="2" fill="#fff0a8" opacity="0.58"/>
  </g>
</svg>
